<?xml version="1.0" encoding="utf-8"?>
<!-- Generator: Adobe Illustrator 18.1.1, SVG Export Plug-In . SVG Version: 6.00 Build 0)  -->
<!DOCTYPE svg PUBLIC "-//W3C//DTD SVG 1.1//EN" "http://www.w3.org/Graphics/SVG/1.1/DTD/svg11.dtd">
<svg version="1.1" xmlns="http://www.w3.org/2000/svg" xmlns:xlink="http://www.w3.org/1999/xlink" x="0px" y="0px" width="32px"
	 height="32px" viewBox="0 0 32 32" enable-background="new 0 0 32 32" xml:space="preserve">

<g id="Layer_1">
</g>
<g id="Guides__x26__Labels">
</g>
<g id="Icons" style="fill:rgb(10,100,255)">
	<g>
		<path d="M8.929,22.125c0.896,0.492,2.018,0.164,2.512-0.73c0.296-0.547,0.289-1.174,0.038-1.695l1.267-1.814
			c0.227,0.004,0.457-0.029,0.683-0.109c0.062-0.025,0.122-0.053,0.184-0.082l1.987,1.082c0.024,0.32,0.127,0.643,0.322,0.926
			c0.584,0.838,1.733,1.047,2.573,0.465c0.535-0.369,0.812-0.975,0.788-1.58l2.135-1.557c0.162,0.066,0.333,0.113,0.513,0.133
			c1.016,0.115,1.929-0.611,2.044-1.627c0.114-1.012-0.615-1.928-1.629-2.039c-1.013-0.117-1.928,0.613-2.04,1.627
			c-0.018,0.141-0.014,0.281-0.002,0.416l-2.012,1.473c-0.576-0.299-1.288-0.279-1.862,0.098l-1.79-0.971
			c0.012-0.246-0.02-0.492-0.108-0.734c-0.352-0.955-1.41-1.451-2.369-1.104c-0.958,0.352-1.449,1.412-1.101,2.369
			c0.026,0.08,0.064,0.16,0.104,0.23l-1.233,1.764c-0.69-0.041-1.376,0.311-1.729,0.955C7.707,20.514,8.035,21.635,8.929,22.125z"/>
		<path d="M26,4H6C4.35,4,3,5.35,3,7v18c0,1.657,1.343,3,3,3h20c1.657,0,3-1.343,3-3V7C29,5.35,27.65,4,26,4z M14,7h2v2h-2V7z M10,7
			h2v2h-2V7z M6,7h2v2H6V7z M26,25H6V11h20V25z"/>
	</g>
</g>
</svg>
